<svg version="1.2" xmlns="http://www.w3.org/2000/svg" viewBox="0 0 63 63" width="63" height="63">
	<style>
		.s0 { fill: none;stroke: currentColor;stroke-width: 4 } 
	</style>
	<g id="Rectangle-2 copy">
		<path id="path-2 copy" fill-rule="evenodd" class="s0" d="m37.79 5h16.99c1.17 0 2.12 0.95 2.12 2.12v16.98c0 1.18-0.95 2.13-2.12 2.13h-16.99c-1.17 0-2.12-0.95-2.12-2.13v-16.98c0-1.17 0.95-2.12 2.12-2.12z"/>
		<path id="path-3 copy" fill-rule="evenodd" class="s0" d="m7.12 5h16.98c1.18 0 2.13 0.95 2.13 2.12v16.98c0 1.18-0.95 2.13-2.13 2.13h-16.98c-1.17 0-2.12-0.95-2.12-2.13v-16.98c0-1.17 0.95-2.12 2.12-2.12z"/>
		<path id="path-6 copy" fill-rule="evenodd" class="s0" d="m7.12 34.86h16.98c1.18 0 2.13 0.95 2.13 2.12v16.98c0 1.17-0.95 2.13-2.13 2.13h-16.98c-1.17 0-2.12-0.96-2.12-2.13v-16.98c0-1.17 0.95-2.12 2.12-2.12z"/>
		<path id="path-8 copy 2" fill-rule="evenodd" class="s0" d="m37.79 34.86h16.99c1.17 0 2.12 0.95 2.12 2.12v16.98c0 1.17-0.95 2.13-2.12 2.13h-16.99c-1.17 0-2.12-0.96-2.12-2.13v-16.98c0-1.17 0.95-2.12 2.12-2.12z"/>
	</g>
</svg>